# xmcd CD database file
#
# Track frame offsets:
#	150
#	21285
#	40607
#	61345
#	78617
#	100640
#	123140
#	144390
#	165755
#	188875
#	206055
#	230677
#	262807
#
# Disc length: 4440 seconds
#
# Revision: 0
# Processed by: cddbd v1.5PL3 Copyright (c) Steve Scherf et al.
# Submitted via: CDex 1.51
#
DISCID=a011560d
DTITLE=黒夢 - Complete Singles A-disc
DYEAR=2003
DGENRE=JPop
TTITLE0=for dear
TTITLE1=ICE MY LIFE
TTITLE2=優しい悲劇
TTITLE3=Miss MOONLIGHT
TTITLE4=BEAMS
TTITLE5=SEE YOU
TTITLE6=ピストル
TTITLE7=Like A Angel
TTITLE8=NITE and DAY
TTITLE9=Spray
TTITLE10=少年
TTITLE11=MARIA
TTITLE12=CCCD
EXTD=YEAR: 2003
EXTT0=
EXTT1=
EXTT2=
EXTT3=
EXTT4=
EXTT5=
EXTT6=
EXTT7=
EXTT8=
EXTT9=
EXTT10=
EXTT11=
EXTT12=
PLAYORDER=
